<?xml version="1.0"?>
<svg xmlns="http://www.w3.org/2000/svg" height="512px" viewBox="0 0 64 64" width="512px"><g><g id="Shopping_Cart" data-name="Shopping Cart"><path d="m37 52h-1v-1a1 1 0 0 0 1 1z" data-original="#000000" class="active-path" data-old_color="#000000" fill="#E5E5E5"/><path d="m38 50h9.037l-.174-2h-8.863z" data-original="#000000" class="active-path" data-old_color="#000000" fill="#E5E5E5"/><circle cx="41" cy="55" r="1" data-original="#000000" class="active-path" data-old_color="#000000" fill="#E5E5E5"/><path d="m58.227 45.124 1.5-12a1 1 0 0 0 -.993-1.124h-22.6l1.75 14h19.35a1 1 0 0 0 .993-.876z" data-original="#000000" class="active-path" data-old_color="#000000" fill="#E5E5E5"/><circle cx="54" cy="55" r="1" data-original="#000000" class="active-path" data-old_color="#000000" fill="#E5E5E5"/><path d="m43.17 16h-3.17v9h-2v-9h-24v9h-2v-9h-3.17a1.007 1.007 0 0 0 -.994.917l-3.65 42a1 1 0 0 0 .994 1.083h41.64a.995.995 0 0 0 .993-1.084l-.602-6.916h-6.211a3 3 0 1 1 -3 3 3 3 0 0 1 3-3h-4a1 1 0 0 1 -1-1v-3.938l-1.98-15.839-1.741-5.223h-3.279v-2h4a1 1 0 0 1 .949.684l1.772 5.316h9.579l-1.136-13.083a1.007 1.007 0 0 0 -.994-.917z" data-original="#000000" class="active-path" data-old_color="#000000" fill="#E5E5E5"/><path d="m57 50v2h-7.78l-.17-2z" data-original="#000000" class="active-path" data-old_color="#000000" fill="#E5E5E5"/><path d="m40 14h-2v-7a3 3 0 0 0 -3-3h-18a3 3 0 0 0 -3 3v7h-2v-7a5.006 5.006 0 0 1 5-5h18a5.006 5.006 0 0 1 5 5z" data-original="#000000" class="active-path" data-old_color="#000000" fill="#E5E5E5"/></g></g> </svg>
